HIERARCHY
ROOT hip
{
	OFFSET 0.000000 0.000000 0.000000 
	CHANNELS 6 Xposition Yposition Zposition Zrotation Xrotation Yrotation
	JOINT abdomen
	{
		OFFSET 0.000000 3.402643 0.000000 
		CHANNELS 3 Zrotation Xrotation Yrotation
		JOINT chest
		{
			OFFSET 0.000000 8.438565 -0.680529 
			CHANNELS 3 Zrotation Xrotation Yrotation
			JOINT neck
			{
				OFFSET 0.000000 10.207942 -0.272212 
				CHANNELS 3 Zrotation Xrotation Yrotation
				JOINT head
				{
					OFFSET 0.000000 3.130431 0.000000 
					CHANNELS 3 Zrotation Xrotation Yrotation
					End Site
					{
						OFFSET 0.000000 3.130435 0.000000 
					}
				}
			}
			JOINT lCollar
			{
				OFFSET 3.470700 6.669187 -0.816635 
				CHANNELS 3 Zrotation Xrotation Yrotation
				JOINT lShldr
				{
					OFFSET 3.198488 0.000000 0.000000 
					CHANNELS 3 Zrotation Xrotation Yrotation
					JOINT lForeArm
					{
						OFFSET 10.139888 0.000000 0.000000 
						CHANNELS 3 Zrotation Xrotation Yrotation
						JOINT lHand
						{
							OFFSET 8.370511 0.000000 0.000000 
							CHANNELS 3 Zrotation Xrotation Yrotation
							End Site
							{
								OFFSET 4.083176 0.000000 0.000000 
							}
						}
					}
				}
			}
			JOINT rCollar
			{
				OFFSET -3.470700 6.669187 -0.816635 
				CHANNELS 3 Zrotation Xrotation Yrotation
				JOINT rShldr
				{
					OFFSET -3.198488 0.000000 0.000000 
					CHANNELS 3 Zrotation Xrotation Yrotation
					JOINT rForeArm
					{
						OFFSET -10.139888 0.000000 0.000000 
						CHANNELS 3 Zrotation Xrotation Yrotation
						JOINT rHand
						{
							OFFSET -8.370511 0.000000 0.000000 
							CHANNELS 3 Zrotation Xrotation Yrotation
							End Site
							{
								OFFSET -4.083176 0.000000 0.000000 
							}
						}
					}
				}
			}
		}
	}
	JOINT lThigh
	{
		OFFSET 5.308129 -1.633274 1.361059 
		CHANNELS 3 Zrotation Xrotation Yrotation
		JOINT lShin
		{
			OFFSET -2.041588 -20.007561 0.000000 
			CHANNELS 3 Zrotation Xrotation Yrotation
			JOINT lFoot
			{
				OFFSET 0.000000 -19.190928 -1.224953 
				CHANNELS 3 Zrotation Xrotation Yrotation
				End Site
				{
					OFFSET 0.000000 -2.449906 4.627600 
				}
			}
		}
	}
	JOINT rThigh
	{
		OFFSET -5.308129 -1.633274 1.361059 
		CHANNELS 3 Zrotation Xrotation Yrotation
		JOINT rShin
		{
			OFFSET 2.041588 -20.007561 0.000000 
			CHANNELS 3 Zrotation Xrotation Yrotation
			JOINT rFoot
			{
				OFFSET 0.000000 -19.190928 -1.224953 
				CHANNELS 3 Zrotation Xrotation Yrotation
				End Site
				{
					OFFSET 0.000000 -2.449906 4.627600 
				}
			}
		}
	}
}
MOTION
Frames: 14
Frame Time: 0.033333
-1.671503 49.453461 -1.093265 8.045089 -10.087389 36.759937 -0.000000 -0.000002 -0.000000 -0.029755 10.068358 -2.377616 11.209153 16.321049 -29.191545 -0.954937 -15.993991 -0.145955 -2.000757 -0.069240 1.990978 -54.998634 32.631413 -8.648603 5.953517 4.741695 -93.075943 -18.000086 -6.153562 -10.117476 1.990970 -0.069577 -2.000746 56.322647 18.615704 7.112158 -14.587649 -0.551144 94.054459 21.365814 19.983093 13.169112 7.660107 -6.324504 -16.458963 -8.048184 40.671700 3.526096 -7.200457 -21.494482 4.878515 -21.005358 0.399850 -31.135757 11.303261 31.764900 -0.803436 -3.545884 -15.205184 4.103034 
-1.862355 50.325668 -1.942127 8.601093 -9.725532 36.113533 -0.000000 -0.000002 -0.000000 0.100910 14.589827 -2.232433 14.418159 19.846672 -27.058710 -0.954937 -15.993991 -0.145955 -2.000757 -0.069240 1.990978 -44.533913 34.309120 -19.657372 5.950723 4.861922 -91.982964 -18.118572 -5.766047 -10.885823 1.990970 -0.069577 -2.000746 52.031914 23.605740 12.346181 -14.386661 -2.314887 100.812592 26.263302 15.226576 16.675797 6.469193 -6.155602 -16.559992 -7.172341 37.619564 2.999453 -7.395906 -15.773170 7.035171 -20.224178 0.356895 -31.401354 8.910476 27.420542 0.365421 -3.085029 -10.305537 5.619823 
-2.025020 50.647953 -2.594868 7.809214 -6.802166 35.237267 -0.000000 -0.000002 -0.000000 0.279334 19.277138 -2.445733 17.181240 23.378147 -24.914423 -0.954937 -15.993991 -0.145955 -2.000757 -0.069240 1.990978 -35.034451 31.775600 -29.738287 5.936585 5.154939 -89.156334 -18.048912 -5.218571 -11.464166 1.990970 -0.069577 -2.000746 43.208561 24.821396 21.395693 -14.071497 -3.690889 106.193382 31.120516 8.354636 20.134890 4.847012 -9.875571 -16.943233 -7.016239 36.738457 2.921432 -7.882468 -11.370690 9.365408 -20.365396 -2.756650 -31.770077 7.580091 24.624714 0.893186 -3.010835 -6.596485 6.393950 
-2.155624 49.950874 -3.288635 7.209896 -4.505279 34.525627 -0.000000 -0.000002 -0.000000 0.534747 24.061575 -2.952407 19.416546 26.583267 -22.645294 -0.954937 -15.993991 -0.145955 -2.000757 -0.069240 1.990978 -27.601690 25.928030 -37.693195 5.905495 5.599184 -84.974571 -17.840944 -4.607065 -11.855242 1.990970 -0.069577 -2.000746 33.901180 23.398678 30.119514 -13.715861 -4.805728 110.698326 35.400227 0.995126 23.363102 3.520409 -15.074656 -17.526932 -8.375424 40.732918 3.828764 -8.181514 -11.041559 10.657714 -23.344822 -7.324276 -31.961538 10.058521 28.934019 -0.218931 -4.601723 -7.255784 6.419464 
-2.250270 47.925163 -4.260541 8.249247 -6.040855 34.186050 -0.000000 -0.000002 -0.000000 0.925885 28.903090 -3.787242 21.080807 30.180002 -20.488857 -0.954937 -15.993991 -0.145955 -2.000757 -0.069240 1.990978 -22.455322 18.545557 -42.891190 5.812533 6.145036 -79.770065 -17.562330 -4.059807 -12.012992 1.990970 -0.069577 -2.000746 27.356981 23.495186 34.813370 -13.310555 -5.823504 114.850609 38.349869 -5.283723 25.801239 2.832822 -19.709465 -17.874056 -12.861531 52.309937 7.154080 -7.664795 -17.287886 9.815569 -29.413027 -11.206118 -32.620071 17.498013 42.247784 -4.542665 -7.743961 -13.318545 6.080376 
-2.305068 44.307842 -5.747439 10.923961 -11.214458 34.464077 -0.000000 -0.000002 -0.000000 1.526566 33.730854 -4.910329 22.067774 33.302769 -18.125162 -0.954937 -15.993991 -0.145955 -2.000757 -0.069240 1.990978 -18.677862 9.850637 -46.075287 5.653491 6.742338 -73.907127 -17.275852 -3.699743 -11.939291 1.990970 -0.069577 -2.000746 22.953480 25.525509 36.428722 -12.858383 -6.732100 118.783600 39.836563 -11.261115 27.056181 2.914137 -22.801025 -17.962193 -25.546280 68.024178 18.366871 -6.709877 -29.918585 6.762345 -36.690254 -13.139372 -33.134655 32.834335 58.196815 -16.446516 -11.776476 -22.139730 4.832968 
-2.310831 39.385925 -8.065413 14.276230 -17.486074 35.387791 -0.000000 -0.000002 -0.000000 2.441857 38.744129 -6.519018 22.156162 35.877831 -15.316745 -0.954937 -15.993991 -0.145955 -2.000757 -0.069240 1.990978 -15.621243 0.390483 -47.335430 5.415382 7.358342 -67.731720 -17.059622 -3.618312 -11.585915 1.990970 -0.069577 -2.000746 18.713270 27.502802 37.015079 -12.407659 -7.518971 122.266968 40.441807 -18.364561 27.411440 2.488627 -28.367432 -18.309874 -86.634521 79.894615 77.905441 -6.599329 -40.512367 2.543729 -45.191517 -15.606313 -33.741199 66.095238 69.641808 -46.609219 -15.474312 -30.634102 1.976502 
-2.240046 33.814476 -11.604719 18.274614 -24.478146 37.029583 -0.000000 -0.000002 -0.000000 4.314415 45.045654 -9.511146 20.471270 36.814575 -10.920067 -0.954937 -15.993991 -0.145955 -2.000757 -0.069240 1.990978 -12.641996 -10.469908 -46.433365 5.116345 7.929057 -61.618809 -16.961069 -3.933134 -10.944065 1.990970 -0.069577 -2.000746 14.155423 28.158678 37.736839 -11.978426 -8.172978 125.270927 40.200623 -26.017673 27.026691 0.313004 -38.255875 -18.637253 -148.639114 70.567406 138.615067 -6.181106 -44.640568 -1.626584 -55.139515 -19.250053 -35.578773 110.401772 70.079185 -88.434174 -18.641960 -37.450253 -2.379270 
-2.104117 28.124434 -15.864248 22.939632 -31.841476 39.461815 -0.000000 -0.000002 -0.000000 7.462143 51.677216 -14.060369 17.494284 36.602875 -5.663334 -0.954937 -15.993991 -0.145955 -2.000757 -0.069240 1.990978 -8.672524 -21.228052 -42.799973 4.779847 8.427211 -55.910805 -17.036222 -4.753274 -9.976056 1.990970 -0.069577 -2.000746 9.707183 27.857235 38.224270 -11.597653 -8.691528 127.773476 39.187786 -33.614944 26.054087 -4.677069 -50.906429 -19.495035 -159.859818 61.827240 148.968033 -4.397366 -39.828804 -2.703238 -66.018036 -23.686220 -40.166008 131.681625 65.887596 -108.096741 -21.050289 -39.174774 -7.096248 
-1.920579 22.774326 -20.227240 28.338408 -39.203144 42.811306 -0.000000 -0.000002 -0.000000 11.833054 57.373398 -19.917994 14.059402 36.042194 -0.509089 -0.954937 -15.993991 -0.145955 -2.000757 -0.069240 1.990978 -2.539954 -29.714815 -35.780876 4.458804 8.834138 -50.974651 -17.319160 -6.188730 -8.673969 1.990970 -0.069577 -2.000746 5.828599 27.442188 38.229076 -11.283136 -9.082194 129.720444 37.582096 -40.540138 24.727266 -12.378559 -62.492023 -21.287027 -161.351898 61.483852 150.127380 -2.706662 -27.370256 -1.343367 -75.427193 -27.734116 -46.552036 136.739609 64.592583 -112.593323 -23.249144 -36.150955 -12.009710 
-1.707024 18.228111 -24.077295 34.485207 -46.234478 47.067936 -0.000000 -0.000002 -0.000000 16.379532 60.946766 -25.834457 10.798450 36.064274 3.798591 -0.954937 -15.993991 -0.145955 -2.000757 -0.069240 1.990978 6.177194 -33.291245 -22.927338 4.065852 9.240093 -45.742939 -17.883722 -9.262118 -6.303214 1.990970 -0.069577 -2.000746 2.645622 27.780743 37.840069 -11.059193 -9.354258 131.077850 35.719452 -46.221119 23.486490 -19.077524 -67.814713 -23.331354 -157.527344 66.904655 146.509949 -2.627738 -15.235884 -0.007093 -80.372620 -30.341185 -51.546154 132.260071 66.878517 -108.455849 -24.843523 -31.212727 -16.320786 
-1.480978 14.996927 -26.798574 41.263950 -52.636395 52.150284 -0.000000 -0.000002 -0.000000 18.530006 61.573963 -29.060453 8.215920 37.789562 6.789662 -0.954937 -15.993991 -0.145955 -2.000757 -0.069240 1.990978 14.782839 -30.088455 -6.007164 3.554217 9.664125 -39.394520 -18.506187 -14.303442 -2.529625 1.990970 -0.069577 -2.000746 0.224443 29.837694 37.319721 -10.935044 -9.499563 131.835800 34.393848 -50.103912 23.140690 -20.319693 -66.745628 -22.560305 -151.391296 71.857620 140.715576 -2.943917 -9.892937 1.051701 -80.322762 -31.211802 -52.838921 123.398918 69.700600 -100.324081 -25.619293 -27.462214 -19.645975 
-1.225868 13.341513 -28.371092 49.398891 -58.961525 58.655369 -0.000000 -0.000002 -0.000000 17.186104 59.203503 -28.499868 6.879147 39.757267 8.048952 -0.954937 -15.993991 -0.145955 -2.000757 -0.069240 1.990978 20.443624 -21.233421 10.033162 2.966966 10.058912 -32.675179 -18.831474 -20.464725 2.168142 1.990970 -0.069577 -2.000746 -1.470188 33.508720 37.086727 -11.000030 -9.439575 131.524933 33.721775 -51.521507 24.296610 -17.756641 -60.515575 -19.654879 -135.366226 77.774193 125.286980 -2.623938 -7.371581 2.958695 -79.407204 -28.097794 -50.229229 113.218178 71.779221 -90.809074 -21.618336 -25.816240 -18.977114 
-0.927152 12.815432 -29.300911 60.960323 -65.348572 68.589424 -0.000000 -0.000002 -0.000000 14.136591 54.690876 -26.155315 6.855713 40.031750 7.560380 -0.954937 -15.993991 -0.145955 -2.000757 -0.069240 1.990978 23.537216 -9.815306 23.747366 2.359879 10.363205 -26.314795 -18.629179 -26.781195 7.366119 1.990970 -0.069577 -2.000746 -2.517539 37.952602 37.191895 -11.240020 -9.151402 130.039307 33.192322 -50.750690 26.547129 -13.735518 -51.417835 -16.890747 -112.180397 80.914154 102.505867 -1.719896 -9.135845 4.852401 -76.872078 -23.318090 -45.295288 102.816170 73.022469 -81.030441 -16.306049 -25.503973 -18.598740 
